<svg version="1" xmlns="http://www.w3.org/2000/svg" width="666.667" height="666.667" viewBox="0 0 500.000000 500.000000">
  <path d="M176.3 66c-4.1 1.1-14.5 5.6-24 10.5L135.5 85l-35.5.4c-32.8.4-60.2 2-79.3 4.6-10.8 1.5-12.5 2-13.1 3.7-.6 1.5 1.7 1.5 25.1.8 55-1.7 90.2-1.1 91.2 1.6.2.6 3.3 3 7 5.4 6.6 4.4 12.1 8.9 12.1 10 0 .3-2.5-1.5-5.5-4-3.1-2.5-5.9-4.5-6.3-4.5-.4 0 .2.7 1.3 1.5 1.1.9 3.4 2.8 5 4.3 4.3 4 7 5.9 6.1 4.4-.4-.6-.4-1.2.1-1.2 1.3.1 6.8 8.1 10.2 14.8 3.2 6.3 3.5 7.9 12.6 55.7 2.2 11.4 4.7 21.5 6.4 25.5 1.5 3.6 3.6 10.9 4.5 16.2 1.9 10.7 4.7 16.3 13.7 27.3 9.1 11.2 26.2 24.2 37.6 28.5 7 2.6 15 2.4 19-.7l2.7-1.9 2.7 3.1c2.9 3.3 4.8 4.4 17.1 9.9 5.1 2.3 7.6 3.9 7.3 4.8-.6 1.9-3.3 23.9-4.1 33.8-.3 4.7-.8 9.6-1 11-.2 1.4-.6 9.7-1 18.5-.8 17.6.8 29.7 4.7 36.4 1.1 1.8 1.8 3.6 1.5 3.8-.7.8-3.7-4.4-5.1-8.9-.8-2.4-1.4-3.4-1.4-2.3-.1 3.3 3.4 9.9 6.8 12.8 3.1 2.5 3.4 2.6 6.2 1.2 2.6-1.4 8.9-10.6 8.8-13 0-.6-.9.8-2.1 3-3.9 7.7-10.2 12-12.3 8.5-.4-.7.2-.9 1.9-.4 3.4.8 7.8-3.7 10.4-10.8 1.4-3.8 2-4.6 2.5-3.2.3 1.1 1.5 5.2 2.6 9.2 3.4 11.7 7.1 15.8 11.6 12.8 2.8-1.9 8.9-13.9 10.9-21.6 1.2-4.4 1.5-4.9 1.5-2.4.2 6.6 12.2 26.4 16 26.4 2.7 0 7-5.9 9-12.4 1.2-3.8 2.1-7.7 2.1-8.8 0-1.8.4-1.7 3.6 1.2 8.6 7.5 14.3 7.7 17.4.7 1.1-2.3 2-5.4 2-6.8 0-3.6.7-4 4.9-2.3 2 .8 4.8 1.3 6.1 1.1 3.9-.6 3.9-3.7-.1-19.1-.6-2.1-1.2-3.6-1.4-3.4-.2.2.5 3.7 1.5 7.8 1.1 4.1 1.9 9.1 1.9 11 0 2.3-.7.7-1.9-5-1-4.7-2.8-11.6-3.9-15.5-1.7-6.1-1.8-7.2-.5-8.6.8-.8 1.4-3.4 1.4-5.7 0-6.3-8.3-31-11-32.7-2-1.2-4-11.5-4.9-25.1-1.3-19.6-2.8-24.3-10.9-34-3.6-4.4-12.2-16.4-19.1-26.7-6.9-10.4-13-19.5-13.6-20.2-.7-1-.1-2.3 2-4.6 4.3-4.5 9.6-6.9 16.7-7.4 7.6-.7 13.8-4 17.6-9.5 2.2-3.2 3.1-3.7 5.3-3.3 5 1 13.3-2.3 17.6-7 2.1-2.3 4.9-4.3 6-4.4 4.3-.3 12.4-4.7 16-8.6 2.1-2.4 6.5-5.5 10.7-7.5 7.9-3.7 15.6-9.6 15.6-11.8 0-.9 1.1-1.4 2.9-1.4 4.8 0 12.3-3.8 17.4-8.8 2.6-2.5 4.7-4.1 4.7-3.5 0 .6-2.4 3.2-5.2 5.7-2.9 2.5-4.9 4.6-4.5 4.6 1.1 0 9.7-8.1 10.9-10.3.7-1.4.7-1.7-.1-1.3-.6.4-1.1.2-1.1-.4 0-1.1.1-1.2 7.3-3.1 2.7-.6 6.4-2.3 8.3-3.6 3.8-2.5 4.9-2.9 3.8-1.2-.9 1.5-12.4 6.9-14.9 7-1.1 0-1.4.3-.8.6.7.2 3.6-.3 6.5-1.3 4-1.3 7-3.4 12-8.4 3.8-3.7 6.8-7.1 6.8-7.6-.1-.5-1.9 1.1-4 3.6-2.2 2.5-4 4-4 3.3 0-.6 4-5.1 9-9.9 13.2-12.9 14.7-17.9 6.1-20.5-6.4-1.9-27 .7-69.1 8.7-17.9 3.4-63.4 12.9-67.5 14.1-1.5.4-1.3 0 .8-1.7 1.5-1.2 3.4-3.4 4.2-4.9 1.2-2.4 1.2-3 0-4.2-1.2-1.2-1.1-2 .9-5.4 1.2-2.2 2.8-3.9 3.5-3.7.6.1 1.7-.9 2.3-2.3 1-2.2.8-3-.9-5.3-1.9-2.5-2.5-2.7-10.4-2.8l-8.4-.1 8.3.6c6.7.5 8.7 1 9.8 2.5 1.7 2.3 1.7 3.6.3 5.6-.8 1.2-.9.9-.5-1.1.4-1.8 0-3.1-1.4-4.4-1.7-1.5-3.2-1.7-10.7-1.2-20.3 1.2-43.3 11.5-81.2 36.4-7.9 5.2-14.5 9.2-14.8 9-.4-.5 23.3-16.1 32-21.2 2.6-1.5 4.6-2.9 4.3-3.2-1.1-1.1-37.2 22.9-36.9 24.5.1.5-1.3 2.2-3.1 3.6l-3.4 2.5-.7-5.7c-2.8-23.9-9-42-16.5-48.5-12.8-10.9-34-15.3-51.7-10.7z"/>
</svg>
